<?xml version="1.0" encoding="UTF-8"?>
<svg id="Camada_1" xmlns="http://www.w3.org/2000/svg" version="1.1" viewBox="0 0 497 502">
  <!-- Generator: Adobe Illustrator 29.3.1, SVG Export Plug-In . SVG Version: 2.1.0 Build 151)  -->
  <defs>
    <style>
      .st0 {
        fill: #f6fefa;
      }

      .st1 {
        fill: #f8fdf8;
      }

      .st2 {
        fill: #edfdf5;
      }

      .st3 {
        fill: #cef3de;
      }

      .st4 {
        fill: #d3fee9;
      }

      .st5 {
        fill: #f7fbf7;
      }

      .st6 {
        fill: #dcf9e6;
      }

      .st7 {
        fill: #f8fdfb;
      }

      .st8 {
        fill: #f5fdfa;
      }

      .st9 {
        fill: #f6fbf5;
      }

      .st10 {
        fill: #f3fefb;
      }

      .st11 {
        fill: #ebfef2;
      }

      .st12 {
        fill: #f2fcf7;
      }

      .st13 {
        fill: #f1fdf4;
      }

      .st14 {
        fill: #e0feef;
      }

      .st15 {
        fill: #f3fdf6;
      }

      .st16 {
        fill: #f6fdf8;
      }

      .st17 {
        fill: #e3feef;
      }

      .st18 {
        fill: #fafcf8;
      }

      .st19 {
        fill: #eafef5;
      }

      .st20 {
        fill: #eeeaed;
      }

      .st21 {
        fill: #ddf9ea;
      }

      .st22 {
        fill: #f7fdfb;
      }

      .st23 {
        fill: #e7fef2;
      }

      .st24 {
        fill: #f2fdf6;
      }

      .st25 {
        fill: #e7fdf3;
      }

      .st26 {
        fill: #e6fdf3;
      }

      .st27 {
        fill: #e7fef1;
      }

      .st28 {
        fill: #e9fcf1;
      }

      .st29 {
        fill: #e0fef5;
      }

      .st30 {
        fill: #e4fdef;
      }

      .st31 {
        fill: #f4fbf4;
      }

      .st32 {
        fill: #e9fef4;
      }

      .st33 {
        fill: #defeef;
      }

      .st34 {
        fill: #f0f9f1;
      }

      .st35 {
        fill: #ccfde9;
      }

      .st36 {
        fill: #a3dbbd;
      }

      .st37 {
        fill: #f4fcf6;
      }

      .st38 {
        fill: #f6fefb;
      }

      .st39 {
        fill: #b3e0c5;
      }

      .st40 {
        fill: #cbcbcb;
      }

      .st41 {
        fill: #f8fbf6;
      }

      .st42 {
        fill: #fafdf9;
      }

      .st43 {
        fill: #f4f9f4;
      }

      .st44 {
        fill: #d1f8e5;
      }

      .st45 {
        fill: #f4faf5;
      }

      .st46 {
        fill: #ebfcf2;
      }

      .st47 {
        fill: #e8fdf4;
      }

      .st48 {
        fill: #cefbe0;
      }

      .st49 {
        fill: #d9fdeb;
      }

      .st50 {
        fill: #defef1;
      }

      .st51 {
        fill: #f7fcf5;
      }

      .st52 {
        fill: #e3fcf3;
      }

      .st53 {
        fill: #e5fcef;
      }

      .st54 {
        fill: #dcfbea;
      }

      .st55 {
        fill: #d5fae4;
      }

      .st56 {
        fill: #f4faf4;
      }

      .st57 {
        fill: #e9fdf2;
      }

      .st58 {
        fill: #dffef3;
      }

      .st59 {
        fill: #d8f9e6;
      }

      .st60 {
        fill: #f5fbf4;
      }

      .st61 {
        fill: #f7fdf9;
      }

      .st62 {
        fill: #edfef6;
      }

      .st63 {
        fill: #f5fefa;
      }

      .st64 {
        fill: #d6fdec;
      }

      .st65 {
        fill: #e2fcf1;
      }

      .st66 {
        fill: #b6dfc8;
      }

      .st67 {
        fill: #dcfef2;
      }

      .st68 {
        fill: #e2fdef;
      }

      .st69 {
        fill: #53ae7d;
      }

      .st70 {
        fill: #f6fdfa;
      }

      .st71 {
        fill: #ddfaec;
      }

      .st72 {
        fill: #e4fef0;
      }

      .st73 {
        fill: #c7f2d9;
      }

      .st74 {
        fill: #ddfef1;
      }

      .st75 {
        fill: #f7fbf5;
      }

      .st76 {
        fill: #f4f2f4;
      }

      .st77 {
        fill: #f9fbf7;
      }

      .st78 {
        fill: #b9e5ce;
      }

      .st79 {
        fill: #e2fef2;
      }

      .st80 {
        fill: #e5fef3;
      }

      .st81 {
        fill: #d0f5e3;
      }

      .st82 {
        fill: #e9fef3;
      }

      .st83 {
        fill: #e6fef3;
      }

      .st84 {
        fill: #fdfdfd;
      }

      .st85 {
        fill: #cefeea;
      }

      .st86 {
        fill: #7fcfa4;
      }
    </style>
  </defs>
  <path class="st84" d="M268,0c1.17.21,2.17.54,3,1,.8.81,2.11.98,3.95.51l.27,1.3c18.13-.45,36.28,4.22,53.27,10.72l4.51.47c.89-.23,1.78-.43,2.68-.48,7.12-.44,31.06,12.14,38.77,16.33,30.97,16.86,61.74,46.17,81.76,75.1,4.34,6.27,18.84,28.7,18.3,34.73-.07.78-.28,1.55-.52,2.32l6,13,3.06,2.38c4.39,11.36,7.81,23.04,10.24,34.98l-1.3,3.65.25,6.69c1.29,2.18,3.36,13.72-.25,10.31q-2.16-.61,0,0l3,1c1.25,3.04,1.92,6.71,2,11v6c-.79,1.58-.8,3.41,0,5v16c-.79,1.58-.8,3.41,0,5v9c-1.38,53.69-26.14,105.9-62.68,145.26-6.64,7.15-25.45,26.73-33.3,29.15-.98.3-1.99.47-3.02.59-3.42,1.49-5.91,2.82-8,6,.76,2.61-.06,2.82-2,1l-3,2c1.33,1.43.75,1.97-1,1-2.67.64-5,1.97-7,4-4.19,3.33-8.58,5.1-13.18,5.31-7.1,5.16-15.04,9.39-23.82,12.69-.78.85-1.58,1.66-2.47,2.36s-1.74,1.33-2.71,1.7c-45.52,17.04-96.39,19.17-143.28,6.49-1-.27-1.92-.83-2.85-1.43s-1.83-1.34-2.69-2.11c-5.05-2.25-10.38-3.91-16-5l-3.68.87c-11.12-3.84-21.81-8.47-32.06-13.88-10.91,2.6-21.69,5.76-32.32,9.5l-1.94-1.49c-4.91.97-11.06,2.31-15,5-24.57,10.35-49.95,18.34-76,24-6.63,1.6-7.92.85-6-6,10.49-40.51,22.83-80.5,37.04-119.98-3.65-7.86-7.3-16.17-10.96-24.91l.92-3.11c.31-2.55-.36-4.22-2-5-.76-.51-1.48-1.06-2.11-1.69-4.89-4.94-13.09-35.09-15.09-43.81-1.81-7.91-6.62-30.79-4.11-37.08.34-.85.8-1.64,1.31-2.42-.2-14.11.29-28.07,1.48-41.87,2.57-.84,2.75-3.55.52-8.13-.4-.69-.77-1.4-1.01-2.14-1.28-4.04,7.04-36.53,10.1-39.46.56-.54,1.22-.98,1.91-1.4l2.46-2.87c2.83-8.75,6.68-17.49,11.54-25.13,3.92-7.31,7.92-14.65,12-22,3.41-5,6.74-10,10-15-1.87-2.47,2.27-7.42,5-6,1.28-1.04,1.94-1.47,1.25-.04,2.65-4.59,7.18-9.83,11.43-12.83l4.32-6.13.44-3.26c7.55-7.57,15.67-14.47,24.28-20.8l3.28.06c2.65-.63,4.31-1.96,5-4,.23-.77.49-1.53.87-2.23,3-5.51,41.59-26.45,47.83-25.46.79.12,1.55.39,2.31.69,9.62-2.75,18.43-5.63,26.42-8.65l14.49-2.03c2.21-2.3,7.66-2.82,11.46-2.02,2.72-1.46,6.83-3.41,9.07-.86,3.7-1.22,7.22-2.37,10.56-3.45h33ZM232,40c-9.66.7-22.51,3.56-32,6-2.67-4.26-7.01.23-8.75.74-2.3.67-5.97.9-8.01,1.62-.17.06-.46,1.86-2.17,2.27-1.97.47-4.47-.84-4.91-.52-.47.35-.38,2.37-1.79,2.79-.91.27-2.19-.66-2.93-.55-.98.15-1.07,1.98-2.27,2.61-2.3,1.21-7.78,3.47-10.27,4.47-3.69,1.47-3.96-1.57-5.9,4.57-3.01,1.54-5.67,3.96-10,6-2.85,1.34-2.77,1.49-5,3-1.15.78-1.4,1.1-3,2-2.88,1.62-5.44,3.72-8,5-.84.42-3.01.03-4.33.91s-1.13,3.1-2.17,4.11c-1.28,1.25-3.38.84-3.51.98,1.58-1.58-1.4-4.59-2.99-2.99s1.42,4.57,2.99,2.99c-.23.26.19,2.24,0,3.01l-1.98-1.02v3.01c-.7.35-1.14.66-2.01,1-1.46.58-2.52-1.23-2,3-7.39,7.47-15.18,15.03-22,23-2.68,3.13-5.81,6.32-8,10-2.63-1.27-3.22,2.06-3.51,2.04-3.59-.33-5.67-6.05-7.49,3.96l4.99-1.99c1.35,8.21-3.81,6.72-4.98,8.02-.47.52.86,3.04.69,4.32-.34,2.66-3.43,3.56-3.54,3.81-.24.54.88,1.99.83,2.85-.3,5.41-6.46,15.67-8.66,21.84-3.81,10.64-6.84,22.16-9.34,33.16-.4,1.75-.65,3.26-1,5-.49,2.45-.6,5.48-1,8-.23,1.47-.73,2.94-1,5-.57,4.32-1.91,9.62-2.04,14.46-.11,4.14-.67,10.21,1.04,13.54.01,3.42-1.86,12.47,2,12,.89,11.08,3.23,21.34,5,32,.3,1.82.68,3.6,2,5,1.56,5.74,4.72,14.22,7,20,.79,1.99,1.72,3.32,2,4,1.27,3.14,2.75,8.43,4,11,1.15,2.01-3.83,2.14-1.99,4,.33.34,2.46-1.45,2.99-.99-3.84,6.3,2.64,5.26,3.87,7.2.33.53-.7,1.94-.32,2.82.51,1.19,2.62,1.86,3.26,3.69.49,1.4-.11,3.63.21,4.29.09.19,2.94-1.07,3.99.99,1.06,1.96,5.7,6.29,6.03,8.55.25,1.7-2.25,8.13-3.03,10.45-2.35,1.79-2.47,4.43-3,7-1.43,2.95-1.19,2.95-2,6-.35,1.34-.62,2.62-1,4l-3.47,7.03c-.63,2.3-.94,4.66-1.53,6.97-3.48,6.29-5.31,13.07-7,20-.2.81.21,2.21-.05,3.41-.59,2.7-3.06,6.31-2.95,9.59.05,1.34.5,2.76,1.99,3l1.01-4c9.91-3.07,20.59-7.07,29.77-9.92,5.3-1.64,13.16-4.72,18.23-5.08,1.32-.09,2.67.03,4,0,5.51-.11,1.78-.58,4.79-1.97,2.16-1,5.24.04,6.56-.34,1.62-.47,2.91-2.69,5.63-3.32s3.73,1.88,4.52-1.36c4,4.82,11.89,4.97,14.52,10.99l1.48-1.99c2.06,4.7,2.41,1.61,4.72,2.21,1.7.44,3.59,1.22,5.78,1.79,1.25.33,2.18.78,3,1,1.75,2.57,4.72,2.27,7,3,3.79,1.21,7.31,2.58,11,4,6.66,2.56,6.7,3.38,15,5,9.47,1.85,19.28,3.89,29,5,2.58.29,4.78.83,8,1,2.97.16,6.02-.02,9,0,2.54,1.71,8.66,1.66,11,0,3.44-.11,6.02-.76,9-1,2.58,2.66,6.6.42,9,0,7.29-1.27,14.79-2.33,22-4,1.23,1.99,4.42-.39,6-1,33.56-13,51-19.43,80-42l.52,1.01c2.29-.46,4.14-2.61,4.48-5.01,2.88-2.33,4.7-4.67,8-7s8.47-3.21,8-9c15.33-17.32,24.06-32.93,35-53,1.47-2.71,2.74-5.69,4-8,2.04-3.73,3.72-7.76,7-10.51-6.73-3.43,3.67-4.29,3.82-6.98.06-1-2.18-2.63-2.35-3.99-.28-2.15,2.08-6.46-.46-8.52,1.74-7.84,3.11-14.98,4-23,2.34,1.91,2.31.39,2.57-1.69.33-2.63.62-9.47-1.57-11.31.04-1-.03-2,0-3,1.69-4.26,1.66-11.95,0-16v-2c2.55-2.73.55-7.15,0-10-.45-2.31-1.74-5.41-2-8,2.59-1.8.41-4.44,0-6-1.38-5.26-2.82-9.36-3-15-.05-1.63.54-4.34,1-5.99l-3,.99c-2.85-10.14-6.32-20.15-10-30-1.47-3.93-2.29-6.31-4.31-10.24-.71-1.38-.02-3.33-2.69-2.76-.7-1.32-1.31-2.71-2-4,2.1-4.44-.88-3.04-2-4-4.92-4.22-9.56-13.35-13-19-1.51-2.48-1.97-6.07-5.5-7.98l-.5.98c-.3-.36-.7-.64-1-1-.44-6.35,2.44-.9,4.49-.99,3.08-.13-1.83-2.79-1.99-2.96-1.16-1.29-1.77-2.85-3-4.05l-3.5,3c-.32-.35-.68-.66-1-1,.86-4.77-4.95-7.62-7.97-10.48-1.4-1.33-3.78-7.18-7.03-4.52-1.31-1.23-3.32-2.52-5-4,.04-3.41-2.38-3.03-4-4-1.83-1.1-3.14-1.48-5-3-1.39-1.89,4.75-3.19,2-4.52-1.58-.77-6.54,1.36-4-2.47-5.69,2.54-4.59-.7-6.73-2.04-2.57-1.61-8.11-5.82-10.06-6.69-1.37-.61-6.81-2.56-8.22-1.28-6.46-3.4-13.21-6.31-20-9,.62-4.16-.63-2.31-2.34-3.12-2.08-.98-4.25-2.11-6.67-1.89l1-2.99c-2.75.58-5.09,1.32-8,.99-1.59-.18-4.07-.72-6-1-11.26-1.62-22.67-5.1-34-6-.84-1.6-3.4-.96-5-1-1.99-.04-4.01.09-6,0-3.91-.17-7.61-.12-11.48-1l-17.52,2ZM43.99,133c.41-2.65-.43-5.01-2.98-5.99.13,2.06-.21,6.73,2.98,5.99Z"/>
  <path class="st18" d="M235,0l-2.12,2.5c-1.61-1.34-3.45,1.86-3.89,3.49-1.79.42-.63-1.64-.99-1.98-1.75-1.68-1.95,1.47-2.49,1.76-2.37,1.29-3.22-2.43-4.01-2.76-2.51-1.04-2.45,1.5-2.73,1.63-.46.2-1.06-.47-1.53-.28-.26.1-.2,2.23-3.54,1.27-2.07-.59-2.67-3.35-2.81.17-5-2.8-5.14,1.54-6.37,2.03-.74.29-12.76.31-15.77,1.16-1.16.33-1.04,2.09-1.73,2.55s-1.03-.43-3.52,1.15c-.43.27-3-1.24-1.47,2.3-2.06.19-3.5-1.45-5.52-1.52-.7-.02-11.91,3.06-13.48,3.53,9.79-5.24,21.19-7.43,31.79-10.71L231,0h4Z"/>
  <path class="st45" d="M9,499c-1.82.58-4.71,1.58-6,3H0v-3c1.42-1.29,2.43-4.18,3-6-.59,4.92,1.83,5.79,6,6Z"/>
  <path class="st76" d="M497,257c-1.58-.66-1.58-4.34,0-5v5Z"/>
  <path class="st40" d="M273,0v1c-.61,1.22-1.38,1.22-2,0-.22-.19-2.42.19-3-1h5Z"/>
  <path class="st20" d="M497,236c-1.58-.66-1.58-4.34,0-5v5Z"/>
  <path class="st1" d="M273,1c19.72-.11,41.52,6.69,60,13-5.18,2.58-9.43-2.42-12.98-3.53-2.12-.66-4.41-.43-7.77-1.4-3.76-1.09-17.66-4.67-20.89-4.69-2.75-.01-5.22,1.09-7.85,1.64l.5-2.01c-.94-.8-10.65,2.61-11.01-1l2-1c-5.65,1.85-3.41-.51-3.99-1.01.67,0,1.33,0,2,0Z"/>
  <path class="st5" d="M200,46c-15.86,4.07-32.57,10.63-47,18,1.93-6.14,2.2-3.1,5.9-4.57,2.5-.99,7.98-3.26,10.27-4.47,1.2-.63,1.29-2.46,2.27-2.61.74-.11,2.02.81,2.93.55,1.41-.42,1.32-2.44,1.79-2.79.44-.32,2.94.99,4.91.52,1.7-.41,2-2.21,2.17-2.27,2.04-.71,5.71-.94,8.01-1.62,1.74-.51,6.08-5,8.75-.74Z"/>
  <path class="st70" d="M165,431c-2.19-.57-4.08-1.35-5.78-1.79-2.32-.6-2.66,2.5-4.72-2.21l-1.48,1.99c-2.63-6.03-10.52-6.17-14.52-10.99-.78,3.25-1.76.73-4.52,1.36s-4.01,2.86-5.63,3.32c-1.32.38-4.4-.66-6.56.34-3.01,1.39.73,1.87-4.79,1.97.47-.99,1.47-1.99,3-3,4.75-1.52,15.16-5.72,19.44-4.98l25.56,13.98Z"/>
  <path class="st7" d="M68,151c.05-.85-1.07-2.31-.83-2.85.11-.25,3.2-1.14,3.54-3.81.16-1.28-1.16-3.8-.69-4.32,1.17-1.3,6.33.19,4.98-8.02l-4.99,1.99c1.81-10.01,3.9-4.28,7.49-3.96.29.03.87-3.31,3.51-2.04,0,2.1-.99,4.43-3,7-1.71,3.15-3.28,6.36-4.99,9.51-.91,1.68-2.9,6.58-5.01,6.49Z"/>
  <path class="st41" d="M10,205c1.83,1.12,3.44,3.32,3.62,5.47.39,4.55-2.68,3.05-3.37,3.71-2.09,2-.2,9.81-.35,12.21-.65,9.91-1.92,18.37-1.9,28.6-1.61-5.03-1.28-12.2-1.07-17.57.07-1.73,1.07-3.51,1.07-3.93v-17c0-1.17,1.64-9.2,2-11.5Z"/>
  <path class="st22" d="M452,291c2.54,2.07.18,6.38.46,8.52.18,1.36,2.41,2.98,2.35,3.99-.15,2.69-10.55,3.56-3.82,6.98-3.28,2.75-4.96,6.77-7,10.51-1.02,1.4-1.35,1.07-1-1,3.88-10.09,6.64-18.39,9-29Z"/>
  <path class="st0" d="M348,63c1.41-1.28,6.85.66,8.22,1.28,1.95.87,7.49,5.08,10.06,6.69,2.14,1.35,1.04,4.58,6.73,2.04-2.54,3.83,2.42,1.7,4,2.47,2.74,1.33-3.39,2.63-2,4.52-.95-.78-1.35-1.4-2-2l-3-2c-7.61-3.81-14.45-9.02-22-13Z"/>
  <path class="st42" d="M47,112c-.09,3.99-1.7,7.3-4.06,10.4-.53.69-2.99.21-1.93,2.61.07.15,2.8-2.49,1.99.98-3.26-.13-9.01,5.29-3.99,6.51l-4.01,1.5c-.41-.5-.41-1.17,0-2,4-7.75,7.24-13.64,12-21v1Z"/>
  <path class="st16" d="M68,336c3.16,6.51,8.36,15.31,12,22-1.05-2.06-3.9-.81-3.99-.99-.31-.67.28-2.9-.21-4.29-.64-1.83-2.75-2.5-3.26-3.69-.37-.88.66-2.29.32-2.82-1.23-1.94-7.71-.9-3.87-7.2-.53-.46-2.66,1.33-2.99.99-1.84-1.85,3.14-1.99,1.99-4Z"/>
  <path class="st9" d="M35,134c-1.19,3.93-4.72,9.11-6.37,13.24-.74,1.84-1.3,3.36-1.93,5-1.42,3.71-.54,9.1-5.69,9.76,3.78-10.53,8.91-20.14,14-30-.11.63.16,1.48,0,2Z"/>
  <path class="st61" d="M389,91c3.25-2.66,5.62,3.19,7.03,4.52,3.03,2.87,8.83,5.71,7.97,10.48-4.32-4.6-10.4-10.68-15-15Z"/>
  <path class="st9" d="M377,455c-6.96,6.77-27.47,14.35-37,18,4.06-5.06,11.55-4.68,17.14-8.35,3.06-2.01,4.04-4.94,5.84-6.09,1.07-.69,3.68.62,5.27.22,1.05-.27,7.21-3.08,8.75-3.77Z"/>
  <path class="st63" d="M312,47c2.91.32,5.25-.41,8-.99l-1,2.99c2.42-.23,4.59.91,6.67,1.89,1.71.81,2.96-1.03,2.34,3.12-5.23-2.07-10.62-4.37-16-6-.87-.28-.86-.62,0-1Z"/>
  <path class="st77" d="M495,214l-2.99,1v-2s-2,1-2,1c-.52-1.83.24-4.4,1.98-2.99.22.17-.22,1.75,0,1.99.07.08,2.16.34,2.01-.51l-3-4c-.51-2.98,1.76-.2,1.98-.48,1.07-1.32-.49-2.54-1.99-2.02-.22-1.99,2.48-.05,1.99-1.98-3.31.87-1.14-5.77-.99-8.01,1.31,6.59,2.2,11.27,3,18Z"/>
  <path class="st55" d="M261,39c.87.28.86.62,0,1-8.98-.27-20.17-.64-29,0l17.52-2c3.86.88,7.57.83,11.48,1Z"/>
  <path class="st38" d="M127,80c.87.28.86.62,0,1-2.69,3.42-8.1,8.04-12,10v-3.01s1.99,1.02,1.99,1.02c.2-.77-.23-2.75,0-3.01-1.58,1.58-4.59-1.4-2.99-2.99s4.57,1.42,2.99,2.99c.12-.13,2.22.27,3.51-.98,1.04-1.01.85-3.24,2.17-4.11s3.49-.49,4.33-.91Z"/>
  <path class="st30" d="M78,135c.87-1.6,1.33-4.19,3-7,2.19-3.68,5.32-6.87,8-10-1.85,6.44-7.1,11.66-11,17Z"/>
  <path class="st29" d="M47,237c-.45,5.1-.79,10.1-1,15-1.71-3.34-1.15-9.4-1.04-13.54.13-4.84,1.47-10.14,2.04-14.46-.42,4,.07,8.84,0,13Z"/>
  <path class="st28" d="M72,409c-1.69,6.36-3.39,13.54-7,19,1.69-6.93,3.52-13.71,7-20v1Z"/>
  <path class="st61" d="M405,107l3.5-3c1.23,1.2,1.85,2.76,3,4.05.16.18,5.07,2.84,1.99,2.96-2.05.08-4.92-5.36-4.49.99-1.4-1.64-2.79-3.7-4-5Z"/>
  <path class="st53" d="M77,394c-1.32,4.78-1.45,10.92-5,15,.08-.31-.08-.69,0-1,.6-2.3.91-4.66,1.53-6.97l3.47-7.03Z"/>
  <path class="st41" d="M79,72c-.66,1.74-2.39,5.88-3.53,6.97-1.64,1.58-4.64,1.46-5.34,2.15-.14.14.94,2.13-.61,3.84-1.31,1.44-3.54,1.46-4.26,2.29-.89,1.02-.59,7.06-3.25,3.75,5.91-7.21,10.24-12.21,17-19Z"/>
  <path class="st82" d="M457,255c2.2,1.84,1.91,8.68,1.57,11.31-.26,2.08-.23,3.61-2.57,1.69.53-4.73.8-8.21,1-13Z"/>
  <path class="st46" d="M201,444c-8.3-1.62-8.34-2.44-15-5,5.2.64,10.39,2.54,15,5Z"/>
  <path class="st56" d="M398,441c-2.8,2.06-4.53,3.83-8,6l2.02-4.39,5.98-1.61Z"/>
  <path class="st19" d="M397,391c1.98-3.62,5.34-5.99,8-9,.47,5.79-4.64,6.63-8,9Z"/>
  <path class="st43" d="M170,475l10.01,1.01-1.01,1.98c2.89-.49,5.43-1.27,7.01,2.01-5.96-1.65-10.18-2.97-16-5Z"/>
  <path class="st69" d="M457,252c.16-5.3,0-10.69,0-16,1.66,4.05,1.69,11.74,0,16Z"/>
  <path class="st56" d="M384,451c-1.91,2.54-4.52,2.88-7,4,2.34-2.28,1.84-6.35,7-4Z"/>
  <path class="st58" d="M48,264c-3.86.47-1.99-8.58-2-12,.28-.87.62-.86,1,0,.14,4.43.68,7.98,1,12Z"/>
  <path class="st75" d="M57,97v2.63c-1.52-.11-5.2,5.03-5.58,6.35-.36,1.23.66,2.86.55,2.96-.35.32-4.33.45-4.97,3.06v-1c3.26-5.05,6.38-9.24,10-14Z"/>
  <path class="st31" d="M480,155c-2.85-2.57-5.17-8.27-6.52-11.95-.23-.64.54-1,.52-1.05,3.27,3.12,4.37,8.84,6,13Z"/>
  <path class="st11" d="M416,120c-2.69-1.56-4.07-4.66-6-7l.5-.98c3.54,1.92,3.99,5.5,5.5,7.98Z"/>
  <path class="st25" d="M135,75c-2.39,2.35-4.45,5.36-8,6v-1c2.56-1.28,5.12-3.38,8-5Z"/>
  <path class="st42" d="M43.99,133c-3.19.73-2.85-3.94-2.98-5.99,2.56.98,3.39,3.35,2.98,5.99Z"/>
  <path class="st77" d="M107,48c1.57-1.16,2.88-2.52,5-4,2.35,2.63-2.3,3.99-5,4Z"/>
  <path class="st57" d="M433,147c2.67-.57,1.98,1.37,2.69,2.76,2.01,3.93,2.84,6.31,4.31,10.24-3.09-3.59-4.76-8.76-7-13Z"/>
  <path class="st60" d="M30,345c-.68-1.62-1.34-3.35-2-5l.49-.98c2.52,1.74,2.71,3.23,1.51,5.98Z"/>
  <path class="st34" d="M100,470c-4.97,1.55-10,3.42-15,5-.45-2.73,1.56-1.87,3.14-2.31,3.81-1.04,8.28-3.42,11.86-2.69Z"/>
  <path class="st39" d="M258,450c-2.34,1.66-8.46,1.71-11,0,3.65.02,7.36.12,11,0Z"/>
  <path class="st59" d="M80,384c.53-2.57.65-5.21,3-7-1.24,3.67-1.51,3.94-3,7Z"/>
  <path class="st49" d="M457,234v-10c.55,2.85,2.55,7.27,0,10Z"/>
  <path class="st13" d="M450,190l3-.99c-.46,1.65-1.05,4.36-1,5.99-1.55-1.3-1.51-3.26-2-5Z"/>
  <path class="st35" d="M276,449c-2.4.42-6.42,2.66-9,0,2.96-.24,6.03.16,9,0Z"/>
  <path class="st67" d="M384,402c1.68-1.31,3.35-2.66,5-4-.34,2.39-2.19,4.54-4.48,5.01l-.52-1.01Z"/>
  <path class="st80" d="M175,435c-2.28-.73-5.25-.43-7-3,2.44.67,5.2.51,7,3Z"/>
  <path class="st65" d="M312,47v1c-1.87-.57-4.48-.03-6-2,1.93.28,4.41.82,6,1Z"/>
  <path class="st85" d="M238,450c-3.22-.17-5.42-.71-8-1,2.5.32,6.27-1,8,1Z"/>
  <path class="st21" d="M78,390c.81-3.05.57-3.05,2-6-.41,1.97,1,5.11-2,6Z"/>
  <path class="st72" d="M304,444c-1.58.61-4.77,2.99-6,1,1.9-.44,3.68-1.6,6-1Z"/>
  <path class="st47" d="M431,143c-.59-1.11-2.28-2.03-2-4,1.12.96,4.1-.44,2,4Z"/>
  <path class="st26" d="M384,87c-1.43-1.25-3.25-2.01-4-4,1.62.97,4.04.59,4,4Z"/>
  <path class="st23" d="M444,321c-1.26,2.31-2.53,5.29-4,8,.67-3.03,1.89-6.12,3-9l1,1Z"/>
  <path class="st17" d="M143,70c-.86,2-2.98,2.74-5,3,2.23-1.51,2.15-1.66,5-3Z"/>
  <path class="st32" d="M65,440l-1.01,4c-1.49-.24-1.94-1.66-1.99-3,1.1-.04,2.01-.69,3-1Z"/>
  <path class="st6" d="M267,39c.87.28.86.62,0,1-1.99-.1-4.01.06-6,0v-1c1.99.09,4.01-.04,6,0Z"/>
  <path class="st4" d="M455,216c-.2-1.95.14-4.03,0-6,.41,1.56,2.59,4.2,0,6Z"/>
  <path class="st74" d="M55,301c-1.32-1.4-1.7-3.18-2-5,2.79.73,1.57,3.44,2,5Z"/>
  <path class="st56" d="M388,448c-.64.44-1.04,2.38-3,2,.25-.69-.18-2.1,0-3l2.99,1Z"/>
  <path class="st48" d="M272,40c-1.65-.13-3.34.08-5,0v-1c1.6.04,4.16-.6,5,1Z"/>
  <path class="st73" d="M49,211c.35-1.74.6-3.25,1-5-.06,1.6.62,4.15-1,5Z"/>
  <path class="st81" d="M47,224c.27-2.06.77-3.53,1-5,1,1.87-.93,4.37-1,5Z"/>
  <path class="st2" d="M113,92c0,1.47-.6,2.51-2,3-.52-4.23.54-2.42,2-3Z"/>
  <path class="st36" d="M47,252h-1c-.02-4.73-.83-10.89,1-15-.08,4.96-.15,10.04,0,15Z"/>
  <path class="st71" d="M373,78c-1.46-.01-2.57-.57-3-2,1.42.71.69-.14,3,2Z"/>
  <g>
    <path class="st84" d="M189,135c1.5,1.47,3.16,2.8,5,4,1.18.5,1.77,1.8,2,3,5.29,8.23,9.11,20.6,13,30,.25,1.54.8,2.97,2,4,1.35,3.32,2.7,6.67,4,10,2.1,4.64,2.77,9.3,2,14-2.38,5.44-8.61,10.51-11.94,14.8-6.04,7.78-10.47,10.51-5.06,20.2,1.42,5.58,6.94,12.11,11,16,1.42,1.87,3.63,4.32,5,6,1.67,4.34,4.67,7.68,9,10,1.39,1.54,3.32,3.17,5,5,9.66,8.87,20.33,16.53,32,23,10.16,4.64,18.88,10.45,30,6,1.49-1.26,2.74-3.09,4-5,2.45-4.74,5.69-7.84,9-12,2.48-.56,4.15-2.56,5-6,1.3-1.51.93-3.35,3.71-4.79,3.79-1.96,4.97-1.04,8.29-.21,4.61,2.86,9.62,4.85,14.65,6.85l.35,1.15c3.41.19,6.75,1.53,10,4,7.93,3.42,12.71,5.96,20,10,3.09,1.97,2.09,3.63-3,5q-2.42,1.67,0,0c.6-1.06,1.93-1.37,3.99-.94-1.78-1.34,1.43-3.6,4.01-2.06,6.8,4.08,6.03,3.68,6,12,.96,1.6.49,3.29,0,5-.36,2.21-.41,3.57-1,6-.86,1.63-1.2,3.3-1,5-.38,1.26-1.47,2.67-2,4-.18.68-.51,1.01-1,1-1.74,2.88-12.11,16.39-15.26,16.36-3.45-2.09-4.81-1.33-4.07,2.3-5.19,2.81-10.57,5.2-16.13,7.2-7.21,1.43-14.72,2.48-22.53,3.14-1.44.47-3.1.8-5,1-13.5-1.38-34.29-10.6-47-16-2.11-1.71-4.23-2.84-7-3-9.03-4.27-12.96-7.02-21-12,1.16-4.26-5.81-7.73-10-6-31.76-22.56-86.08-81.94-90-122,.2-5.47.53-10.8,1-16-.52-1.29-.52-2.96,0-5,1.2-7.96,3.43-16.78,7-24,3.56-3.51,6.66-7.24,9.28-11.19,4.13-4.13,8.91-8.67,14.72-9.81,6.61-1.45,15.06-.88,22,0Z"/>
    <path class="st70" d="M373,330c.6.89-.13,2.3-1,3-6.81,14.24-29.19,23.62-44,26-1.89.47-3.56.47-5,0-2.59.85-5.44.97-8,0,1-1.84,3.8-.59,5.35-1,.97-.25.59-1.93.68-1.99.61-.38,1.42,1.55,2.48,1.62.54.04,2.62-2.02,4.51-.64l.99-1.99.99,1.99c.53-4.91,3.87-1.61,7.42-2.01,1.43-.16,5.76-2.06,7.26-2.83,3.49-1.78,4.48-4.96,8.33-4.17l-2.99-1.98c2.31-.11,6.96-8.8,6.99-1.01,4.26.31,5.19-4.27,7.05-6.42,2.2-2.55,6.39-2.27,3.96-7.58,2.91,1.7,2.33.26,4.99-1Z"/>
    <path class="st7" d="M225,323c3.37-6.58,8.53,1.19,11.32.81s3.73-5.4,7.68-3.8c.66,3.24-4.1,2.54-5.7,4.3-.8.88-.95,3.93-3.3,4.69-3.59-2.22-5.62-2.89-10-6Z"/>
    <path class="st15" d="M167,135c-.66.29-.88,2.92-1.01,3-.25.15-1.68-1.06-2.39-1s-9.3,6.76-10.31,8.29c-.62.94.05,2.7-.46,3.51-1.16,1.85-8.14.9-4.83,9.2-4.18.47.47-4.66-4.99-1.99,4.04-8.17,14.68-20.42,24-22,.87.28.86.62,0,1Z"/>
    <path class="st70" d="M230,272l32,23c-5.94-2.71-9.51-5.37-14.67-7.95-1.47-.74-3.1-.06-3.2-.19-.36-.47-.09-2.12-1.15-3.32-1.45-1.66-4.83-2.17-6.53-3.54-2.25-1.82-5.01-6.42-6.46-8Z"/>
    <path class="st51" d="M211,251c-4.61,1.09-2.92-3.83-5.45-6.06-1.29-1.14-3.85-1.57-5.55-1.96l1.98-.99c.14-2.67-4.16-3.05-1.99-7,2.3,4.12,8,12.03,11,16Z"/>
    <path class="st37" d="M225,267l-2.48-1.01c-1.54.42-2.72,3.36-4.51.49l1.98-.47c.5-4.62-.58-2.02-2.02-2.63-2.28-.97-1.49-4.43-1.98-6.38,2.79,3.42,6.04,6.7,9,10Z"/>
    <path class="st24" d="M337,279c1.38,1.13,1.97,1.73,0,2-3.98-1.7-7.05-2.23-10.65-4.37-.93-.55-3.45-2.72-4.35-3.63,4.18,1.05,10.93,4.11,15,6Z"/>
    <path class="st79" d="M190,135c-.32.85-.66.85-1,0-2.47-.28-20.99-.45-22,0v-1c4.35-.74,12.63-.07,17.51-.02,1.69.02,4.44-.64,5.49,1.02Z"/>
    <path class="st8" d="M372,297h-2.99c.78,4.52-1.65,2.71-5.01,3-.07.46.16,1.88,0,2-.42.3-2.98-.18-3.99,0-.66-3.08,1.51-1.78,3.99-1.99.61-4.21,2.81-.93,4-2l-1-3c.98.54,2.64.59,5,2Z"/>
    <path class="st12" d="M310,278l-.47,6.03c-2.7-.43-2.68,3.86-4.53-.03,1.65-2.07,3.28-3.99,5-6Z"/>
    <path class="st14" d="M217,200l-.77-.58c1.86-4.81-.81-8.68-1.23-13.42,2.01,5.16,4.94,7.28,2,14Z"/>
    <path class="st50" d="M135,201c-.43-4.41-.33-11.52,0-16,.28-.87.62-.86,1,0,0,5.08.84,11.53-1,16Z"/>
    <path class="st10" d="M194,138v1c-3.1-.7-5.43.63-5-4,.33.04.69-.07,1,0,1.98.43,2.8,1.65,4,3Z"/>
    <path class="st83" d="M315,359c2.66-.05,5.34,0,8,0,.87.28.86.62,0,1-3.6.29-9.45.36-13,0,.84-1.6,3.4-.97,5-1Z"/>
    <path class="st62" d="M292,301c.14-2.39,2.08-3.91,4-5-.26.51.04,1.9-.94,3.53-1.7,2.83-2.88,1.4-3.06,1.47Z"/>
    <path class="st52" d="M256,341c4.06-.73,4.64.36,7,3-2.53-1.08-4.31-1.72-7-3Z"/>
    <path class="st68" d="M347,285c-3.47-1.5-6.86-2.66-10-4v-2c3.18,1.48,7.82,3.59,10,6Z"/>
    <path class="st33" d="M376,325c-1.44-.63.07-4.04,1-5-.4,1.64-.31,2.71-1,5Z"/>
    <path class="st3" d="M372,333c.39-.81.33-2.15,1-3,.31-.15.62-.77,1-1-.47,1.17.44,3.48-2,4Z"/>
    <path class="st78" d="M378,314c0-1.67,0-3.33,0-5,2.62,1.38.15,4.07,0,5Z"/>
    <path class="st86" d="M136,185h-1c.18-2.44.78-3.52,1-5v5Z"/>
    <path class="st64" d="M211,176c-1.84-.52-2.17-2.26-2-4,.43,1.04,1.31,2.3,2,4Z"/>
    <path class="st66" d="M328,359c-1.53.25-2.57.8-5,1v-1h5Z"/>
    <path class="st54" d="M196,142c-.55-.86-1.85-1.6-2-3v-1c1.02,1.15,2.54,1.33,2,4Z"/>
    <path class="st70" d="M233,282.99c-1.71,1.51-4.49-1.3-2.99-2.99.96-1.07,4.06,2.05,2.99,2.99Z"/>
  </g>
  <g>
    <path class="st27" d="M120,422c.66,2.4-1.56,1.8-3,3-1.33.03-2.68-.09-4,0,1.63-1.92,4.64-2.25,7-3Z"/>
    <path class="st44" d="M64,325c-.28-.68-1.21-2.01-2-4l2,4Z"/>
  </g>
</svg>